<svg width="291.425" height="20.6" viewBox="0 0 291.425 20.6" xmlns="http://www.w3.org/2000/svg"><g id="svgGroup" stroke-linecap="round" fill-rule="evenodd" font-size="9pt" stroke="#000000" stroke-width="0" fill="#0000ff" style="stroke:#000000;stroke-width:0;fill:#0000ff"><path d="M 49.775 16.075 L 42.725 16.075 L 42.725 13.825 L 40.45 13.825 L 40.45 6.8 L 42.725 6.8 L 42.725 4.525 L 49.775 4.525 L 49.775 6.8 L 52.075 6.8 L 52.075 9.275 L 49.525 9.275 L 49.525 7.025 L 42.975 7.025 L 42.975 9.025 L 47.525 9.025 L 47.525 11.55 L 42.975 11.55 L 42.975 13.575 L 49.525 13.575 L 49.525 11.275 L 52.075 11.275 L 52.075 13.8 L 49.775 13.8 L 49.775 16.075 Z M 190.15 16.075 L 183.1 16.075 L 183.1 13.825 L 180.825 13.825 L 180.825 6.8 L 183.1 6.8 L 183.1 4.525 L 190.15 4.525 L 190.15 6.8 L 192.45 6.8 L 192.45 9.275 L 189.9 9.275 L 189.9 7.025 L 183.35 7.025 L 183.35 9.025 L 187.9 9.025 L 187.9 11.55 L 183.35 11.55 L 183.35 13.575 L 189.9 13.575 L 189.9 11.275 L 192.45 11.275 L 192.45 13.8 L 190.15 13.8 L 190.15 16.075 Z M 229 16.075 L 221.95 16.075 L 221.95 13.825 L 219.675 13.825 L 219.675 6.8 L 221.95 6.8 L 221.95 4.525 L 229 4.525 L 229 6.8 L 231.3 6.8 L 231.3 9.275 L 228.75 9.275 L 228.75 7.025 L 222.2 7.025 L 222.2 9.025 L 226.75 9.025 L 226.75 11.55 L 222.2 11.55 L 222.2 13.575 L 228.75 13.575 L 228.75 11.275 L 231.3 11.275 L 231.3 13.8 L 229 13.8 L 229 16.075 Z M 274.475 16.075 L 267.425 16.075 L 267.425 13.825 L 265.15 13.825 L 265.15 6.8 L 267.425 6.8 L 267.425 4.525 L 274.475 4.525 L 274.475 6.8 L 276.775 6.8 L 276.775 9.275 L 274.225 9.275 L 274.225 7.025 L 267.675 7.025 L 267.675 9.025 L 272.225 9.025 L 272.225 11.55 L 267.675 11.55 L 267.675 13.575 L 274.225 13.575 L 274.225 11.275 L 276.775 11.275 L 276.775 13.8 L 274.475 13.8 L 274.475 16.075 Z M 129.75 16.075 L 120.425 16.075 L 120.425 13.575 L 129.5 13.575 L 129.5 11.55 L 122.7 11.55 L 122.7 9.275 L 120.425 9.275 L 120.425 6.8 L 122.7 6.8 L 122.7 4.525 L 132.05 4.525 L 132.05 7.025 L 122.95 7.025 L 122.95 9.025 L 129.75 9.025 L 129.75 11.3 L 132.05 11.3 L 132.05 13.825 L 129.75 13.825 L 129.75 16.075 Z M 146.7 16.075 L 139.6 16.075 L 139.6 13.825 L 137.35 13.825 L 137.35 7.025 L 135.075 7.025 L 135.075 4.525 L 137.35 4.525 L 137.35 0 L 139.85 0 L 139.85 4.525 L 146.7 4.525 L 146.7 7.025 L 139.85 7.025 L 139.85 13.575 L 146.45 13.575 L 146.45 11.3 L 148.975 11.3 L 148.975 13.825 L 146.7 13.825 L 146.7 16.075 Z M 176.275 20.6 L 169.2 20.6 L 169.2 18.35 L 166.925 18.35 L 166.925 15.85 L 169.45 15.85 L 169.45 18.1 L 176.025 18.1 L 176.025 13.825 L 169.2 13.825 L 169.2 11.55 L 166.925 11.55 L 166.925 6.8 L 169.2 6.8 L 169.2 4.525 L 176.275 4.525 L 176.275 6.8 L 178.55 6.8 L 178.55 18.35 L 176.275 18.35 L 176.275 20.6 Z M 209.8 16.075 L 202.75 16.075 L 202.75 13.825 L 200.475 13.825 L 200.475 6.8 L 202.75 6.8 L 202.75 4.525 L 209.8 4.525 L 209.8 6.8 L 212.1 6.8 L 212.1 9.275 L 209.55 9.275 L 209.55 7.025 L 203 7.025 L 203 13.575 L 209.55 13.575 L 209.55 11.3 L 212.1 11.3 L 212.1 13.825 L 209.8 13.825 L 209.8 16.075 Z M 62.625 16.075 L 60.1 16.075 L 60.1 2.275 L 62.375 2.275 L 62.375 0 L 69.425 0 L 69.425 2.275 L 71.725 2.275 L 71.725 4.775 L 69.175 4.775 L 69.175 2.525 L 62.625 2.525 L 62.625 6.8 L 67.175 6.8 L 67.175 9.275 L 62.625 9.275 L 62.625 16.075 Z M 35.625 16.075 L 28.575 16.075 L 28.575 13.825 L 26.3 13.825 L 26.3 4.525 L 28.825 4.525 L 28.825 13.575 L 35.375 13.575 L 35.375 4.525 L 37.925 4.525 L 37.925 13.825 L 35.625 13.825 L 35.625 16.075 Z M 82.325 16.075 L 79.8 16.075 L 79.8 4.525 L 89.125 4.525 L 89.125 6.8 L 91.425 6.8 L 91.425 16.075 L 88.875 16.075 L 88.875 7.025 L 82.325 7.025 L 82.325 16.075 Z M 7.075 16.075 L 4.525 16.075 L 4.525 2.525 L 2.525 2.525 L 2.525 4.775 L 0 4.775 L 0 2.275 L 2.275 2.275 L 2.275 0 L 9.325 0 L 9.325 2.275 L 11.625 2.275 L 11.625 4.775 L 9.075 4.775 L 9.075 2.525 L 7.075 2.525 L 7.075 16.075 Z M 103.025 16.075 L 95.975 16.075 L 95.975 13.825 L 93.7 13.825 L 93.7 6.8 L 95.975 6.8 L 95.975 4.525 L 103.025 4.525 L 103.025 6.8 L 105.325 6.8 L 105.325 13.575 L 107.6 13.575 L 107.6 16.075 L 105.075 16.075 L 105.075 13.825 L 103.025 13.825 L 103.025 16.075 Z M 160.575 16.075 L 153.525 16.075 L 153.525 13.825 L 151.25 13.825 L 151.25 6.8 L 153.525 6.8 L 153.525 4.525 L 160.575 4.525 L 160.575 6.8 L 162.875 6.8 L 162.875 13.575 L 165.15 13.575 L 165.15 16.075 L 162.625 16.075 L 162.625 13.825 L 160.575 13.825 L 160.575 16.075 Z M 243.65 16.075 L 236.6 16.075 L 236.6 13.825 L 234.325 13.825 L 234.325 6.8 L 236.6 6.8 L 236.6 4.525 L 243.65 4.525 L 243.65 6.8 L 245.95 6.8 L 245.95 13.575 L 248.225 13.575 L 248.225 16.075 L 245.7 16.075 L 245.7 13.825 L 243.65 13.825 L 243.65 16.075 Z M 289.125 16.075 L 282.075 16.075 L 282.075 13.825 L 279.8 13.825 L 279.8 6.8 L 282.075 6.8 L 282.075 4.525 L 288.9 4.525 L 288.9 0 L 291.425 0 L 291.425 13.825 L 289.125 13.825 L 289.125 16.075 Z M 14.675 16.075 L 12.15 16.075 L 12.15 6.8 L 14.425 6.8 L 14.425 4.525 L 21.475 4.525 L 21.475 6.8 L 23.775 6.8 L 23.775 9.275 L 21.225 9.275 L 21.225 7.025 L 14.675 7.025 L 14.675 16.075 Z M 253.775 16.075 L 251.25 16.075 L 251.25 6.8 L 253.525 6.8 L 253.525 4.525 L 260.575 4.525 L 260.575 6.8 L 262.875 6.8 L 262.875 9.275 L 260.325 9.275 L 260.325 7.025 L 253.775 7.025 L 253.775 16.075 Z M 112.4 16.075 L 109.875 16.075 L 109.875 0 L 112.4 0 L 112.4 16.075 Z M 217.15 16.075 L 214.625 16.075 L 214.625 0 L 217.15 0 L 217.15 16.075 Z M 77.275 16.075 L 74.75 16.075 L 74.75 4.525 L 77.275 4.525 L 77.275 16.075 Z M 96.225 7.025 L 96.225 13.575 L 102.775 13.575 L 102.775 7.025 L 96.225 7.025 Z M 153.775 7.025 L 153.775 13.575 L 160.325 13.575 L 160.325 7.025 L 153.775 7.025 Z M 236.85 7.025 L 236.85 13.575 L 243.4 13.575 L 243.4 7.025 L 236.85 7.025 Z M 282.325 7.025 L 282.325 13.575 L 288.875 13.575 L 288.875 7.025 L 282.325 7.025 Z M 169.45 7.025 L 169.45 11.3 L 176.025 11.3 L 176.025 7.025 L 169.45 7.025 Z M 77.275 2.525 L 74.75 2.525 L 74.75 0 L 77.275 0 L 77.275 2.525 Z" vector-effect="non-scaling-stroke"/></g></svg>