<svg width="201.75" height="20.6" viewBox="0 0 201.75 20.6" xmlns="http://www.w3.org/2000/svg"><g id="svgGroup" stroke-linecap="round" fill-rule="evenodd" font-size="9pt" stroke="#000000" stroke-width="0" fill="#00dd00" style="stroke:#000000;stroke-width:0;fill:#00dd00"><path d="M 100.475 16.075 L 93.425 16.075 L 93.425 13.825 L 91.15 13.825 L 91.15 6.8 L 93.425 6.8 L 93.425 4.525 L 100.475 4.525 L 100.475 6.8 L 102.775 6.8 L 102.775 9.275 L 100.225 9.275 L 100.225 7.025 L 93.675 7.025 L 93.675 9.025 L 98.225 9.025 L 98.225 11.55 L 93.675 11.55 L 93.675 13.575 L 100.225 13.575 L 100.225 11.275 L 102.775 11.275 L 102.775 13.8 L 100.475 13.8 L 100.475 16.075 Z M 139.325 16.075 L 132.275 16.075 L 132.275 13.825 L 130 13.825 L 130 6.8 L 132.275 6.8 L 132.275 4.525 L 139.325 4.525 L 139.325 6.8 L 141.625 6.8 L 141.625 9.275 L 139.075 9.275 L 139.075 7.025 L 132.525 7.025 L 132.525 9.025 L 137.075 9.025 L 137.075 11.55 L 132.525 11.55 L 132.525 13.575 L 139.075 13.575 L 139.075 11.275 L 141.625 11.275 L 141.625 13.8 L 139.325 13.8 L 139.325 16.075 Z M 184.8 16.075 L 177.75 16.075 L 177.75 13.825 L 175.475 13.825 L 175.475 6.8 L 177.75 6.8 L 177.75 4.525 L 184.8 4.525 L 184.8 6.8 L 187.1 6.8 L 187.1 9.275 L 184.55 9.275 L 184.55 7.025 L 178 7.025 L 178 9.025 L 182.55 9.025 L 182.55 11.55 L 178 11.55 L 178 13.575 L 184.55 13.575 L 184.55 11.275 L 187.1 11.275 L 187.1 13.8 L 184.8 13.8 L 184.8 16.075 Z M 40.075 16.075 L 30.75 16.075 L 30.75 13.575 L 39.825 13.575 L 39.825 11.55 L 33.025 11.55 L 33.025 9.275 L 30.75 9.275 L 30.75 6.8 L 33.025 6.8 L 33.025 4.525 L 42.375 4.525 L 42.375 7.025 L 33.275 7.025 L 33.275 9.025 L 40.075 9.025 L 40.075 11.3 L 42.375 11.3 L 42.375 13.825 L 40.075 13.825 L 40.075 16.075 Z M 57.025 16.075 L 49.925 16.075 L 49.925 13.825 L 47.675 13.825 L 47.675 7.025 L 45.4 7.025 L 45.4 4.525 L 47.675 4.525 L 47.675 0 L 50.175 0 L 50.175 4.525 L 57.025 4.525 L 57.025 7.025 L 50.175 7.025 L 50.175 13.575 L 56.775 13.575 L 56.775 11.3 L 59.3 11.3 L 59.3 13.825 L 57.025 13.825 L 57.025 16.075 Z M 86.6 20.6 L 79.525 20.6 L 79.525 18.35 L 77.25 18.35 L 77.25 15.85 L 79.775 15.85 L 79.775 18.1 L 86.35 18.1 L 86.35 13.825 L 79.525 13.825 L 79.525 11.55 L 77.25 11.55 L 77.25 6.8 L 79.525 6.8 L 79.525 4.525 L 86.6 4.525 L 86.6 6.8 L 88.875 6.8 L 88.875 18.35 L 86.6 18.35 L 86.6 20.6 Z M 120.125 16.075 L 113.075 16.075 L 113.075 13.825 L 110.8 13.825 L 110.8 6.8 L 113.075 6.8 L 113.075 4.525 L 120.125 4.525 L 120.125 6.8 L 122.425 6.8 L 122.425 9.275 L 119.875 9.275 L 119.875 7.025 L 113.325 7.025 L 113.325 13.575 L 119.875 13.575 L 119.875 11.3 L 122.425 11.3 L 122.425 13.825 L 120.125 13.825 L 120.125 16.075 Z M 2.525 16.075 L 0 16.075 L 0 4.525 L 2.275 4.525 L 2.275 2.275 L 4.525 2.275 L 4.525 0 L 7.075 0 L 7.075 2.275 L 9.325 2.275 L 9.325 4.525 L 11.625 4.525 L 11.625 16.075 L 9.075 16.075 L 9.075 11.55 L 2.525 11.55 L 2.525 16.075 Z M 70.9 16.075 L 63.85 16.075 L 63.85 13.825 L 61.575 13.825 L 61.575 6.8 L 63.85 6.8 L 63.85 4.525 L 70.9 4.525 L 70.9 6.8 L 73.2 6.8 L 73.2 13.575 L 75.475 13.575 L 75.475 16.075 L 72.95 16.075 L 72.95 13.825 L 70.9 13.825 L 70.9 16.075 Z M 153.975 16.075 L 146.925 16.075 L 146.925 13.825 L 144.65 13.825 L 144.65 6.8 L 146.925 6.8 L 146.925 4.525 L 153.975 4.525 L 153.975 6.8 L 156.275 6.8 L 156.275 13.575 L 158.55 13.575 L 158.55 16.075 L 156.025 16.075 L 156.025 13.825 L 153.975 13.825 L 153.975 16.075 Z M 199.45 16.075 L 192.4 16.075 L 192.4 13.825 L 190.125 13.825 L 190.125 6.8 L 192.4 6.8 L 192.4 4.525 L 199.225 4.525 L 199.225 0 L 201.75 0 L 201.75 13.825 L 199.45 13.825 L 199.45 16.075 Z M 164.1 16.075 L 161.575 16.075 L 161.575 6.8 L 163.85 6.8 L 163.85 4.525 L 170.9 4.525 L 170.9 6.8 L 173.2 6.8 L 173.2 9.275 L 170.65 9.275 L 170.65 7.025 L 164.1 7.025 L 164.1 16.075 Z M 17.175 16.075 L 14.65 16.075 L 14.65 0 L 17.175 0 L 17.175 16.075 Z M 22.725 16.075 L 20.2 16.075 L 20.2 0 L 22.725 0 L 22.725 16.075 Z M 127.475 16.075 L 124.95 16.075 L 124.95 0 L 127.475 0 L 127.475 16.075 Z M 64.1 7.025 L 64.1 13.575 L 70.65 13.575 L 70.65 7.025 L 64.1 7.025 Z M 147.175 7.025 L 147.175 13.575 L 153.725 13.575 L 153.725 7.025 L 147.175 7.025 Z M 192.65 7.025 L 192.65 13.575 L 199.2 13.575 L 199.2 7.025 L 192.65 7.025 Z M 2.525 4.775 L 2.525 9.025 L 9.075 9.025 L 9.075 4.775 L 6.825 4.775 L 6.825 2.525 L 4.775 2.525 L 4.775 4.775 L 2.525 4.775 Z M 79.775 7.025 L 79.775 11.3 L 86.35 11.3 L 86.35 7.025 L 79.775 7.025 Z" vector-effect="non-scaling-stroke"/></g></svg>