<svg width="237.65" height="20.6" viewBox="0 0 237.65 20.6" xmlns="http://www.w3.org/2000/svg"><g id="svgGroup" stroke-linecap="round" fill-rule="evenodd" font-size="9pt" stroke="#000000" stroke-width="0" fill="#ff0000" style="stroke:#000000;stroke-width:0;fill:#ff0000"><path d="M 136.375 16.075 L 129.325 16.075 L 129.325 13.825 L 127.05 13.825 L 127.05 6.8 L 129.325 6.8 L 129.325 4.525 L 136.375 4.525 L 136.375 6.8 L 138.675 6.8 L 138.675 9.275 L 136.125 9.275 L 136.125 7.025 L 129.575 7.025 L 129.575 9.025 L 134.125 9.025 L 134.125 11.55 L 129.575 11.55 L 129.575 13.575 L 136.125 13.575 L 136.125 11.275 L 138.675 11.275 L 138.675 13.8 L 136.375 13.8 L 136.375 16.075 Z M 175.225 16.075 L 168.175 16.075 L 168.175 13.825 L 165.9 13.825 L 165.9 6.8 L 168.175 6.8 L 168.175 4.525 L 175.225 4.525 L 175.225 6.8 L 177.525 6.8 L 177.525 9.275 L 174.975 9.275 L 174.975 7.025 L 168.425 7.025 L 168.425 9.025 L 172.975 9.025 L 172.975 11.55 L 168.425 11.55 L 168.425 13.575 L 174.975 13.575 L 174.975 11.275 L 177.525 11.275 L 177.525 13.8 L 175.225 13.8 L 175.225 16.075 Z M 220.7 16.075 L 213.65 16.075 L 213.65 13.825 L 211.375 13.825 L 211.375 6.8 L 213.65 6.8 L 213.65 4.525 L 220.7 4.525 L 220.7 6.8 L 223 6.8 L 223 9.275 L 220.45 9.275 L 220.45 7.025 L 213.9 7.025 L 213.9 9.025 L 218.45 9.025 L 218.45 11.55 L 213.9 11.55 L 213.9 13.575 L 220.45 13.575 L 220.45 11.275 L 223 11.275 L 223 13.8 L 220.7 13.8 L 220.7 16.075 Z M 39.4 16.075 L 30.075 16.075 L 30.075 13.575 L 39.15 13.575 L 39.15 11.55 L 32.35 11.55 L 32.35 9.275 L 30.075 9.275 L 30.075 6.8 L 32.35 6.8 L 32.35 4.525 L 41.7 4.525 L 41.7 7.025 L 32.6 7.025 L 32.6 9.025 L 39.4 9.025 L 39.4 11.3 L 41.7 11.3 L 41.7 13.825 L 39.4 13.825 L 39.4 16.075 Z M 75.975 16.075 L 66.65 16.075 L 66.65 13.575 L 75.725 13.575 L 75.725 11.55 L 68.925 11.55 L 68.925 9.275 L 66.65 9.275 L 66.65 6.8 L 68.925 6.8 L 68.925 4.525 L 78.275 4.525 L 78.275 7.025 L 69.175 7.025 L 69.175 9.025 L 75.975 9.025 L 75.975 11.3 L 78.275 11.3 L 78.275 13.825 L 75.975 13.825 L 75.975 16.075 Z M 56.35 16.075 L 49.25 16.075 L 49.25 13.825 L 47 13.825 L 47 7.025 L 44.725 7.025 L 44.725 4.525 L 47 4.525 L 47 0 L 49.5 0 L 49.5 4.525 L 56.35 4.525 L 56.35 7.025 L 49.5 7.025 L 49.5 13.575 L 56.1 13.575 L 56.1 11.3 L 58.625 11.3 L 58.625 13.825 L 56.35 13.825 L 56.35 16.075 Z M 92.925 16.075 L 85.825 16.075 L 85.825 13.825 L 83.575 13.825 L 83.575 7.025 L 81.3 7.025 L 81.3 4.525 L 83.575 4.525 L 83.575 0 L 86.075 0 L 86.075 4.525 L 92.925 4.525 L 92.925 7.025 L 86.075 7.025 L 86.075 13.575 L 92.675 13.575 L 92.675 11.3 L 95.2 11.3 L 95.2 13.825 L 92.925 13.825 L 92.925 16.075 Z M 122.5 20.6 L 115.425 20.6 L 115.425 18.35 L 113.15 18.35 L 113.15 15.85 L 115.675 15.85 L 115.675 18.1 L 122.25 18.1 L 122.25 13.825 L 115.425 13.825 L 115.425 11.55 L 113.15 11.55 L 113.15 6.8 L 115.425 6.8 L 115.425 4.525 L 122.5 4.525 L 122.5 6.8 L 124.775 6.8 L 124.775 18.35 L 122.5 18.35 L 122.5 20.6 Z M 156.025 16.075 L 148.975 16.075 L 148.975 13.825 L 146.7 13.825 L 146.7 6.8 L 148.975 6.8 L 148.975 4.525 L 156.025 4.525 L 156.025 6.8 L 158.325 6.8 L 158.325 9.275 L 155.775 9.275 L 155.775 7.025 L 149.225 7.025 L 149.225 13.575 L 155.775 13.575 L 155.775 11.3 L 158.325 11.3 L 158.325 13.825 L 156.025 13.825 L 156.025 16.075 Z M 9.325 16.075 L 2.275 16.075 L 2.275 13.825 L 0 13.825 L 0 0 L 2.525 0 L 2.525 13.575 L 9.075 13.575 L 9.075 11.3 L 11.625 11.3 L 11.625 13.825 L 9.325 13.825 L 9.325 16.075 Z M 23.225 16.075 L 16.175 16.075 L 16.175 13.825 L 13.9 13.825 L 13.9 6.8 L 16.175 6.8 L 16.175 4.525 L 23.225 4.525 L 23.225 6.8 L 25.525 6.8 L 25.525 13.575 L 27.8 13.575 L 27.8 16.075 L 25.275 16.075 L 25.275 13.825 L 23.225 13.825 L 23.225 16.075 Z M 106.8 16.075 L 99.75 16.075 L 99.75 13.825 L 97.475 13.825 L 97.475 6.8 L 99.75 6.8 L 99.75 4.525 L 106.8 4.525 L 106.8 6.8 L 109.1 6.8 L 109.1 13.575 L 111.375 13.575 L 111.375 16.075 L 108.85 16.075 L 108.85 13.825 L 106.8 13.825 L 106.8 16.075 Z M 189.875 16.075 L 182.825 16.075 L 182.825 13.825 L 180.55 13.825 L 180.55 6.8 L 182.825 6.8 L 182.825 4.525 L 189.875 4.525 L 189.875 6.8 L 192.175 6.8 L 192.175 13.575 L 194.45 13.575 L 194.45 16.075 L 191.925 16.075 L 191.925 13.825 L 189.875 13.825 L 189.875 16.075 Z M 235.35 16.075 L 228.3 16.075 L 228.3 13.825 L 226.025 13.825 L 226.025 6.8 L 228.3 6.8 L 228.3 4.525 L 235.125 4.525 L 235.125 0 L 237.65 0 L 237.65 13.825 L 235.35 13.825 L 235.35 16.075 Z M 200 16.075 L 197.475 16.075 L 197.475 6.8 L 199.75 6.8 L 199.75 4.525 L 206.8 4.525 L 206.8 6.8 L 209.1 6.8 L 209.1 9.275 L 206.55 9.275 L 206.55 7.025 L 200 7.025 L 200 16.075 Z M 163.375 16.075 L 160.85 16.075 L 160.85 0 L 163.375 0 L 163.375 16.075 Z M 16.425 7.025 L 16.425 13.575 L 22.975 13.575 L 22.975 7.025 L 16.425 7.025 Z M 100 7.025 L 100 13.575 L 106.55 13.575 L 106.55 7.025 L 100 7.025 Z M 183.075 7.025 L 183.075 13.575 L 189.625 13.575 L 189.625 7.025 L 183.075 7.025 Z M 228.55 7.025 L 228.55 13.575 L 235.1 13.575 L 235.1 7.025 L 228.55 7.025 Z M 115.675 7.025 L 115.675 11.3 L 122.25 11.3 L 122.25 7.025 L 115.675 7.025 Z" vector-effect="non-scaling-stroke"/></g></svg>